<svg xmlns:dc="http://purl.org/dc/elements/1.1/" xmlns:cc="http://creativecommons.org/ns#" xmlns:rdf="http://www.w3.org/1999/02/22-rdf-syntax-ns#" xmlns:svg="http://www.w3.org/2000/svg" xmlns="http://www.w3.org/2000/svg" xmlns:xlink="http://www.w3.org/1999/xlink" id="svg457285" viewBox="0 0 1024 768" height="768" width="1024" version="1.1">
  <metadata id="metadata457291" fill="#FFFFFF">
    <rdf:rdf fill="#FFFFFF">
      <cc:work rdf:about="" fill="#FFFFFF">
        <dc:format fill="#FFFFFF">image/svg+xml</dc:format>
        <dc:type rdf:resource="http://purl.org/dc/dcmitype/StillImage" fill="#FFFFFF"></dc:type>
      </cc:work>
    </rdf:rdf>
  </metadata>
  <defs id="defs457289"><linearGradient id="da0382e2-c90e-4a00-88b0-5d35d6db5489" gradientUnits="userSpaceOnUse" x1="85.41597" y1="713.57141" x2="112.23496" y2="706.38531" gradientTransform="matrix(1 0 0 1 0 -598)" fill="#FFFFFF"> <stop offset="0.2304" style="stop-color:#000000;stop-opacity:0.8" fill="#FFFFFF"></stop> <stop offset="0.6213" style="stop-color:#000000;stop-opacity:0" fill="#FFFFFF"></stop> </linearGradient><linearGradient id="7251f6a9-58f0-4cc5-a432-fc2952bb3e4e" gradientUnits="userSpaceOnUse" x1="107.45" y1="-501.89999" x2="107.45" y2="-521.20001" gradientTransform="matrix(1 0 0 -1 0 -396)" fill="#FFFFFF"> <stop offset="0.2309" style="stop-color:#000000;stop-opacity:0.8" fill="#FFFFFF"></stop> <stop offset="0.4058" style="stop-color:#000000;stop-opacity:0.4228" fill="#FFFFFF"></stop> <stop offset="0.6408" style="stop-color:#000000;stop-opacity:0" fill="#FFFFFF"></stop> </linearGradient><linearGradient id="c3299059-d1da-438e-98dd-56928e5a4928" gradientUnits="userSpaceOnUse" x1="87.3" y1="-480.38568" x2="87.3" y2="-497.56622" gradientTransform="matrix(1 0 0 -1 0 -396)" fill="#FFFFFF"> <stop offset="0.1417" style="stop-color:#000000;stop-opacity:0.8" fill="#FFFFFF"></stop> <stop offset="0.4769" style="stop-color:#000000;stop-opacity:0.4202" fill="#FFFFFF"></stop> <stop offset="0.9802" style="stop-color:#000000;stop-opacity:0" fill="#FFFFFF"></stop> </linearGradient><linearGradient id="17184d1f-ab15-4931-ac0b-a369312286df" gradientUnits="userSpaceOnUse" x1="99.93118" y1="-481.29999" x2="99.93118" y2="-496.14978" gradientTransform="matrix(1 0 0 -1 0 -396)" fill="#FFFFFF"> <stop offset="0.2228" style="stop-color:#000000;stop-opacity:0.8" fill="#FFFFFF"></stop> <stop offset="0.5404" style="stop-color:#000000;stop-opacity:0.2925" fill="#FFFFFF"></stop> <stop offset="0.7684" style="stop-color:#000000;stop-opacity:0" fill="#FFFFFF"></stop> </linearGradient></defs>
  <linearGradient spreadMethod="pad" y2="30%" x2="-10%" y1="120%" x1="30%" id="3d_gradient2-logo-54f2442d-34f5-4577-bc0a-0ac2a2bb593c" fill="#FFFFFF">
    <stop id="stop457266" stop-opacity="1" stop-color="#ffffff" offset="0%" fill="#FFFFFF"></stop>
    <stop id="stop457268" stop-opacity="1" stop-color="#000000" offset="100%" fill="#FFFFFF"></stop>
  </linearGradient>
  <linearGradient gradientTransform="rotate(-30)" spreadMethod="pad" y2="30%" x2="-10%" y1="120%" x1="30%" id="3d_gradient3-logo-54f2442d-34f5-4577-bc0a-0ac2a2bb593c" fill="#FFFFFF">
    <stop id="stop457271" stop-opacity="1" stop-color="#ffffff" offset="0%" fill="#FFFFFF"></stop>
    <stop id="stop457273" stop-opacity="1" stop-color="#cccccc" offset="50%" fill="#FFFFFF"></stop>
    <stop id="stop457275" stop-opacity="1" stop-color="#000000" offset="100%" fill="#FFFFFF"></stop>
  </linearGradient>
  <g id="logo-group" fill="#FFFFFF">
    <image xlink:href="" id="container" x="272" y="144" width="480" height="480" transform="translate(0 0)" style="display: none;" fill="#FFFFFF"></image>
    <g id="logo-center" transform="translate(0 0)" fill="#FFFFFF">
      <image xlink:href="" id="icon_container" x="0" y="0" style="display: none;" fill="#FFFFFF"></image>
      <g id="slogan" style="font-style:normal;font-weight:400;font-size:32px;line-height:1;font-family:'Hammersmith One';font-variant-ligatures:none;text-align:center;text-anchor:middle" transform="translate(0 0)" fill="#FFFFFF"></g>
      <g id="title" style="font-style:normal;font-weight:normal;font-size:72px;line-height:1;font-family:'Brandmark Sans 16 Color Shadow';font-variant-ligatures:normal;text-align:center;text-anchor:middle" transform="translate(0 0)" fill="#FFFFFF">
        <g id="path457294" aria-label="A" transform="translate(0 345.88) translate(257.0468750000001 -24.880000000000003) scale(2.5) translate(-412.31319 50.4)" fill="#FFFFFF"> <path class="c1" d="M107.9,74.8H101h-6.5l-19.8,50.4H90l3.2-8.9h15.5l1.6,8.9h15l-10.8-50.4C114.5,74.8,107.9,74.8,107.9,74.8z M97,105.5l6.4-18l3.3,18H97z" transform="translate(337.61319 -125.2)" stroke-width="0px" stroke-linejoin="miter" stroke-miterlimit="2" fill="#6259C0" stroke="#6259C0"></path> <linearGradient id="da0382e2-c90e-4a00-88b0-5d35d6db5489" gradientUnits="userSpaceOnUse" x1="85.41597" y1="713.57141" x2="112.23496" y2="706.38531" gradientTransform="matrix(1 0 0 1 0 -598)" fill="#FFFFFF"> <stop offset="0.2304" style="stop-color:#000000;stop-opacity:0.8" fill="#FFFFFF"></stop> <stop offset="0.6213" style="stop-color:#000000;stop-opacity:0" fill="#FFFFFF"></stop> </linearGradient> <path class="highlight" fill="url(&quot;#da0382e2-c90e-4a00-88b0-5d35d6db5489&quot;)" d="M108.7,116.3H93.2l3.8-10.8h9.7L108.7,116.3z" transform="translate(337.61319 -125.2)" stroke-width="0px" stroke-linejoin="miter" stroke-miterlimit="2" opacity="0.73"></path> </g>
        <g id="path457296" aria-label="R" transform="translate(0 345.88) translate(398.6862500000001 -24.880000000000003) scale(2.5) translate(-465.96894 50.4)" fill="#FFFFFF"> <path class="c1" d="M123.1,89.5c0-7.3-5.9-14.8-14.2-14.8H95.8h-4.4h-10l-4.5,50.4h14.4l1.6-18.1h1.9l8.6,18.1h16.7l-9.2-19.3 C118.9,103.4,123.1,97.2,123.1,89.5z M104.1,85.6c2.5,0,4.6,2.6,4.6,4.8s-1.8,6-5.8,6h-9l1-10.7h9.2V85.6z" transform="translate(389.06894 -125.1)" stroke-width="0px" stroke-linejoin="miter" stroke-miterlimit="2" fill="#6259C0" stroke="#6259C0"></path> <linearGradient id="7251f6a9-58f0-4cc5-a432-fc2952bb3e4e" gradientUnits="userSpaceOnUse" x1="107.45" y1="-501.89999" x2="107.45" y2="-521.20001" gradientTransform="matrix(1 0 0 -1 0 -396)" fill="#FFFFFF"> <stop offset="0.2309" style="stop-color:#000000;stop-opacity:0.8" fill="#FFFFFF"></stop> <stop offset="0.4058" style="stop-color:#000000;stop-opacity:0.4228" fill="#FFFFFF"></stop> <stop offset="0.6408" style="stop-color:#000000;stop-opacity:0" fill="#FFFFFF"></stop> </linearGradient> <path class="highlight" fill="url(&quot;#7251f6a9-58f0-4cc5-a432-fc2952bb3e4e&quot;)" d="M120.1,125.2h-16.7l-8.6-18.1h7.3c3.3,0,6.2-0.4,8.7-1.2L120.1,125.2z" transform="translate(389.06894 -125.1)" stroke-width="0px" stroke-linejoin="miter" stroke-miterlimit="2" opacity="0.73"></path> </g>
        <g id="path457298" aria-label="O" transform="translate(0 345.88) translate(525.4909500000001 -26.68) scale(2.5) translate(-513.69082 51.12)" fill="#FFFFFF"> <path class="c1" d="M102.3,74.1c-14.7,0-27.6,11.6-28.9,25.9c-0.1,0.7-0.1,1.3-0.1,2l0,0l0,0c-0.1,13.4,10.4,23.9,24.5,23.9 c14.7,0,27.6-11.6,28.9-25.9C127.9,85.7,117,74.1,102.3,74.1z M111.9,100c-0.7,8.3-6.7,15.1-13.3,15.1c-6.2,0-10.7-5.9-10.7-13.5 l0,0c0-0.1,0-0.3,0-0.4s0-0.1,0-0.2c0-0.3,0-0.7,0.1-1.1l0,0c0.7-8.3,6.7-15.1,13.3-15.1S112.6,91.7,111.9,100z" transform="translate(440.391528 -125.22)" stroke-width="0px" stroke-linejoin="miter" stroke-miterlimit="2" fill="#6259C0" stroke="#6259C0"></path> <linearGradient id="c3299059-d1da-438e-98dd-56928e5a4928" gradientUnits="userSpaceOnUse" x1="87.3" y1="-480.38568" x2="87.3" y2="-497.56622" gradientTransform="matrix(1 0 0 -1 0 -396)" fill="#FFFFFF"> <stop offset="0.1417" style="stop-color:#000000;stop-opacity:0.8" fill="#FFFFFF"></stop> <stop offset="0.4769" style="stop-color:#000000;stop-opacity:0.4202" fill="#FFFFFF"></stop> <stop offset="0.9802" style="stop-color:#000000;stop-opacity:0" fill="#FFFFFF"></stop> </linearGradient> <path class="highlight" fill="url(&quot;#c3299059-d1da-438e-98dd-56928e5a4928&quot;)" d="M87.9,101.7L73.3,102v-0.1c1-10.3,11.3-21.2,28-17l0,0c-6.6,0-12.5,6.8-13.3,15.1 c0,0.4,0,0.7-0.1,1.1c0,0.1,0,0.1,0,0.2C87.9,101.4,87.9,101.5,87.9,101.7C87.9,101.6,87.9,101.7,87.9,101.7z" transform="translate(440.391528 -125.22)" stroke-width="0px" stroke-linejoin="miter" stroke-miterlimit="2" opacity="0.73"></path> </g>
        <g id="path457300" aria-label="S" transform="translate(0 345.88) translate(671.1931249999999 -26.68) scale(2.5) translate(-568.97169 51.12)" fill="#FFFFFF"> <path class="c1" d="M99.6,89.1c0,6.2,19.3,4.9,19.3,19.7c0,16-18.9,17.2-23.2,17.2c-2.3,0-10-0.7-14.8-2.7l1.2-13.8 c4.9,3,9.7,5.3,13.8,5.3c4.2,0,5.7-2,5.7-3.6c0-7.8-18.7-4-18.7-20.2c0-12.8,14.2-16.9,21.6-16.9c7.1,0,10.3,0.8,14.6,1.9 l-1.2,13.8c0,0-7.6-4.5-12.3-4.5C102,85.3,99.6,86.8,99.6,89.1z" transform="translate(488.07169 -125.22)" stroke-width="0px" stroke-linejoin="miter" stroke-miterlimit="2" fill="#6259C0" stroke="#6259C0"></path> <linearGradient id="17184d1f-ab15-4931-ac0b-a369312286df" gradientUnits="userSpaceOnUse" x1="99.93118" y1="-481.29999" x2="99.93118" y2="-496.14978" gradientTransform="matrix(1 0 0 -1 0 -396)" fill="#FFFFFF"> <stop offset="0.2228" style="stop-color:#000000;stop-opacity:0.8" fill="#FFFFFF"></stop> <stop offset="0.5404" style="stop-color:#000000;stop-opacity:0.2925" fill="#FFFFFF"></stop> <stop offset="0.7684" style="stop-color:#000000;stop-opacity:0" fill="#FFFFFF"></stop> </linearGradient> <path class="highlight" fill="url(&quot;#17184d1f-ab15-4931-ac0b-a369312286df&quot;)" d="M115.7,100.1H86c0,0-9.5-14.8,14.7-14.8h4.9c-3.6,0-6,1.5-6,3.8C99.6,93.7,110.2,94.2,115.7,100.1z" transform="translate(488.07169 -125.22)" stroke-width="0px" stroke-linejoin="miter" stroke-miterlimit="2" opacity="0.73"></path> </g>
          </g>
      <image xlink:href="" id="icon" x="0" y="0" style="display: none;" fill="#FFFFFF"></image>
    </g>
  </g>
</svg>